# xmcd
#
# Track frame offsets: 
#        150
#        44425
#        96943
#        123375
#
# Disc length: 2649 seconds
#
# Revision: 1
# Processed by: cddbd v1.5.1PL0 Copyright (c) Steve Scherf et al.
# Submitted via: ExactAudioCopy v0.95a5
#
DISCID=300a5704
DTITLE=Valdo Williams - New Advanced Jazz (1966 Savoy)
DYEAR=1966
DGENRE=Jazz
TTITLE0=Desert Fox (Williams)
TTITLE1=Bad Manners (Williams)
TTITLE2=Move Faster (Williams)
TTITLE3=The Conqueror (Williams)
EXTD=YEAR: 1966
EXTT0=
EXTT1=
EXTT2=
EXTT3=
PLAYORDER=
